<?xml version="1.0" standalone="no"?>
<!DOCTYPE svg PUBLIC "-//W3C//DTD SVG 20010904//EN"
 "http://www.w3.org/TR/2001/REC-SVG-20010904/DTD/svg10.dtd">
<svg version="1.0" xmlns="http://www.w3.org/2000/svg"
 width="925.000000pt" height="912.000000pt" viewBox="0 0 925.000000 912.000000"
 preserveAspectRatio="xMidYMid meet">

<g transform="translate(0.000000,912.000000) scale(0.100000,-0.100000)"
fill="#000000" stroke="none">
<path d="M5113 8914 c-7 -18 2 -202 10 -210 3 -3 24 -3 47 1 l41 7 -7 76 c-9
103 -25 142 -59 142 -14 0 -28 -7 -32 -16z"/>
<path d="M5372 8795 c-71 -64 -98 -109 -83 -141 6 -13 18 -24 28 -24 15 0 162
146 163 162 0 4 -13 16 -29 27 l-29 21 -50 -45z"/>
<path d="M4872 8807 c-12 -13 -22 -30 -22 -38 0 -18 116 -159 130 -159 6 0 10
5 10 10 0 6 12 22 26 35 25 23 25 26 12 47 -28 42 -110 128 -122 128 -7 0 -22
-10 -34 -23z"/>
<path d="M5354 8536 c-3 -8 -4 -29 -2 -48 3 -38 8 -38 148 -22 l75 9 0 35 0
35 -108 3 c-86 2 -108 0 -113 -12z"/>
<path d="M4830 8533 c-84 -6 -92 -10 -88 -45 3 -28 8 -33 38 -39 53 -11 168 1
174 18 16 40 -18 76 -64 71 -8 -1 -35 -3 -60 -5z"/>
<path d="M4917 8282 c-81 -81 -86 -95 -45 -121 21 -13 26 -10 85 52 61 66 81
102 69 132 -10 28 -31 16 -109 -63z"/>
<path d="M5278 8344 c-16 -8 -28 -17 -28 -19 0 -4 171 -132 198 -149 14 -9 62
29 62 49 0 20 -167 135 -195 134 -5 0 -22 -7 -37 -15z"/>
<path d="M5104 8264 c-7 -40 2 -139 17 -184 12 -33 51 -50 78 -33 12 8 17 31
19 107 3 117 -10 145 -70 146 -35 0 -38 -2 -44 -36z"/>
<path d="M6950 7064 c-6 -14 -10 -67 -10 -119 0 -75 -3 -94 -16 -99 -9 -3 -56
-6 -105 -6 -72 0 -91 -3 -96 -16 -10 -28 14 -37 116 -42 117 -5 113 0 110
-146 -3 -99 2 -116 30 -116 33 0 40 24 43 136 l3 109 117 3 c87 2 119 6 128
17 10 12 10 18 0 30 -9 11 -35 15 -106 15 -51 0 -104 4 -118 10 -26 9 -26 11
-26 113 0 88 -3 106 -18 120 -26 24 -41 21 -52 -9z"/>
<path d="M8199 6326 c-48 -17 -106 -53 -112 -70 -3 -7 -8 -34 -12 -59 -10 -67
18 -110 88 -133 89 -29 107 -41 107 -74 0 -47 -28 -93 -82 -133 -56 -41 -107
-49 -146 -21 -28 19 -28 52 -1 104 28 53 22 116 -15 165 -22 29 -33 35 -64 35
-89 0 -174 -87 -217 -222 -24 -73 -27 -99 -26 -218 1 -193 22 -301 82 -404
l46 -81 -66 -73 c-81 -90 -141 -132 -296 -204 -156 -73 -272 -98 -452 -97 -70
0 -148 4 -173 9 -104 19 -249 75 -315 120 -22 15 -65 43 -96 63 -75 48 -240
206 -279 267 -36 56 -65 68 -54 23 4 -16 8 -30 10 -32 2 -2 -1 -12 -7 -23 -14
-27 47 -105 156 -199 161 -138 259 -198 421 -257 166 -61 406 -68 634 -18 157
35 445 205 526 311 34 45 46 48 107 24 68 -27 216 -36 317 -19 160 27 395 183
535 354 183 226 223 395 119 506 -21 23 -23 29 -13 65 6 21 9 70 7 108 -3 61
-7 72 -31 93 -75 64 -189 3 -261 -140 -15 -30 -36 -62 -47 -72 -18 -17 -19
-16 -19 23 0 26 -13 65 -36 112 -30 59 -47 81 -96 117 -86 63 -160 79 -239 50z
m132 -76 c50 -14 125 -82 140 -128 7 -20 13 -71 13 -112 0 -63 -5 -87 -33
-155 -19 -44 -44 -91 -57 -106 -28 -30 -31 -54 -7 -68 45 -25 127 66 282 314
127 202 164 231 186 144 20 -78 -150 -412 -285 -561 -33 -36 -60 -71 -60 -77
0 -18 38 -33 58 -22 58 31 224 251 282 375 26 55 47 59 56 11 16 -86 -23 -184
-129 -327 -67 -89 -118 -139 -217 -212 -141 -104 -261 -147 -415 -149 -152 -1
-218 39 -285 176 -48 100 -65 216 -58 401 5 132 15 163 86 259 28 39 39 48 61
45 35 -4 39 -43 12 -97 -59 -115 19 -229 147 -217 95 9 211 97 232 178 27 97
-12 172 -102 201 -30 9 -63 26 -74 38 -17 18 -17 23 -4 46 25 44 100 63 171
43z"/>
<path d="M893 6240 c-63 -9 -138 -54 -192 -116 -29 -33 -44 -64 -58 -117 -11
-40 -24 -71 -28 -71 -5 1 -26 30 -46 65 -86 147 -137 199 -195 199 -42 0 -90
-33 -114 -80 -21 -41 -20 -68 6 -181 4 -20 1 -27 -19 -36 -41 -19 -59 -131
-36 -218 32 -119 172 -367 242 -428 120 -104 294 -197 417 -223 97 -20 284
-15 353 10 l48 17 82 -83 c91 -93 144 -128 250 -164 127 -43 341 -54 482 -24
22 5 67 14 100 20 33 7 70 18 82 26 12 8 33 14 45 14 26 0 200 71 293 120 122
64 381 259 431 325 22 30 24 37 13 51 -10 13 -10 17 2 25 8 5 18 9 22 9 4 0 3
10 -4 21 -10 20 -14 18 -82 -49 -140 -139 -270 -232 -442 -320 -157 -80 -234
-110 -372 -144 -116 -29 -142 -32 -283 -32 -97 0 -172 5 -200 13 -96 27 -204
89 -283 162 l-78 71 50 52 c90 96 135 217 128 344 -2 42 -9 104 -15 137 -13
67 -112 343 -136 380 -37 56 -143 55 -200 -1 -30 -31 -33 -62 -11 -123 27 -77
-6 -116 -90 -109 -60 5 -100 28 -124 70 -22 39 0 106 37 114 44 9 104 37 134
62 21 18 28 33 28 58 0 74 -45 134 -115 153 -44 12 -46 12 -122 1z m131 -101
c41 -48 31 -73 -35 -85 -45 -9 -99 -37 -123 -63 -29 -32 -33 -115 -7 -173 27
-63 82 -98 177 -111 84 -12 114 -3 164 48 36 37 40 60 26 152 -8 47 -6 52 14
63 38 20 58 -6 106 -134 24 -65 47 -135 50 -155 4 -20 11 -44 15 -53 5 -9 10
-70 11 -135 1 -113 0 -122 -29 -184 -38 -79 -95 -134 -188 -180 -68 -33 -74
-34 -185 -33 -104 0 -123 3 -199 32 -101 38 -152 67 -254 144 -92 70 -138 126
-194 234 -79 153 -115 303 -80 333 11 8 29 -17 87 -125 41 -75 103 -174 138
-221 55 -73 67 -84 90 -81 43 5 39 37 -12 100 -101 124 -254 422 -263 514 -5
44 -2 58 12 74 10 11 24 20 31 20 26 0 98 -100 155 -216 32 -66 70 -137 84
-158 14 -20 25 -40 25 -43 0 -11 95 -132 108 -137 21 -9 62 16 62 38 0 11 -18
50 -40 87 -39 66 -70 164 -70 224 0 53 20 103 60 154 61 77 102 98 197 100 34
1 45 -4 67 -30z"/>
<path d="M5092 5725 c-21 -46 14 -94 98 -132 80 -36 146 -41 197 -15 88 45
130 115 91 154 -18 18 -21 18 -44 3 -13 -8 -24 -22 -24 -29 0 -21 -58 -66 -85
-66 -40 0 -107 29 -160 70 -29 22 -54 40 -57 40 -3 0 -10 -11 -16 -25z"/>
<path d="M3736 5718 c-15 -23 -16 -30 -3 -60 18 -43 76 -91 126 -107 21 -6 63
-11 94 -11 48 0 63 5 119 43 47 31 66 51 74 76 10 31 9 37 -9 52 -28 22 -53
14 -68 -22 -7 -18 -28 -38 -50 -50 -76 -38 -158 -17 -225 59 l-41 46 -17 -26z"/>
<path d="M4952 5058 c-6 -13 -12 -34 -14 -48 -4 -35 -59 -43 -228 -35 -253 13
-279 17 -293 45 -8 16 -21 25 -37 25 -20 0 -28 -10 -47 -60 -26 -67 -26 -103
-1 -119 15 -9 23 -5 48 23 l31 33 182 -17 c145 -14 201 -16 277 -7 88 9 97 8
124 -10 23 -16 33 -18 51 -10 22 10 23 14 13 49 -12 46 -49 111 -75 136 -19
16 -20 16 -31 -5z"/>
<path d="M1697 3979 c-14 -9 -17 -26 -17 -119 0 -76 -4 -111 -12 -117 -7 -4
-57 -9 -111 -11 -75 -3 -100 -8 -104 -19 -9 -24 17 -33 99 -33 42 0 88 -4 102
-10 26 -9 26 -10 26 -130 0 -102 2 -122 16 -127 9 -3 24 -2 33 4 13 8 17 32
19 118 1 60 7 114 13 121 7 8 41 10 119 6 89 -4 111 -2 124 10 12 12 12 19 3
31 -9 11 -42 16 -125 21 -62 3 -117 8 -123 11 -5 4 -9 55 -9 114 0 90 -3 111
-18 124 -12 11 -22 13 -35 6z"/>
<path d="M5296 2879 c3 -5 14 -9 25 -9 21 0 26 -16 7 -23 -7 -3 0 -10 16 -16
20 -8 32 -9 40 -1 7 7 6 10 -2 10 -7 0 -16 10 -21 21 -5 15 -17 22 -39 24 -17
2 -29 -1 -26 -6z"/>
<path d="M3731 2841 c-7 -5 -22 -6 -32 -4 -31 9 -108 -17 -102 -33 4 -11 -6
-14 -46 -14 -57 0 -220 -55 -399 -135 -57 -25 -140 -56 -185 -69 -150 -44
-377 -146 -377 -170 0 -22 28 -46 55 -46 13 0 52 -9 87 -20 34 -11 86 -20 113
-20 28 0 66 -4 85 -9 19 -6 60 -13 90 -16 30 -3 91 -10 135 -15 44 -5 123 -16
175 -24 278 -43 531 -76 580 -76 31 0 60 -4 65 -9 6 -5 53 -12 105 -16 130 -9
183 -18 187 -32 5 -15 0 -17 -250 -58 -219 -36 -407 -72 -415 -79 -3 -3 15
-37 35 -65 1 -2 24 5 50 16 62 26 117 37 107 21 -5 -7 -2 -9 8 -6 9 4 37 10
63 13 34 6 43 10 34 17 -10 7 -6 8 14 5 15 -2 27 -1 27 3 0 9 86 21 175 26 33
1 94 12 135 23 42 11 93 21 115 21 195 5 415 1 485 -9 47 -6 98 -11 115 -11
16 0 32 -5 35 -11 4 -5 56 -14 116 -19 125 -12 164 -18 182 -33 8 -6 45 -12
84 -13 44 -2 79 -9 94 -19 14 -9 44 -17 67 -18 38 -2 41 0 47 30 6 27 4 32
-15 37 -20 5 -532 96 -623 111 -50 8 -51 27 -2 31 19 2 83 8 142 13 59 6 116
15 127 20 11 6 44 11 73 11 48 1 323 37 573 76 131 21 221 32 325 40 47 4 90
10 96 15 6 5 26 8 45 7 19 0 51 5 72 11 21 7 44 10 52 7 8 -3 17 -1 20 4 3 5
25 12 50 15 24 4 52 16 61 26 17 19 17 21 -2 39 -27 26 -281 137 -345 151 -30
6 -139 47 -244 91 -235 98 -414 159 -480 164 -27 1 -58 6 -67 9 -10 4 -18 3
-18 -2 0 -6 -10 -14 -22 -20 -20 -8 2 -18 147 -65 160 -52 355 -127 490 -189
33 -15 101 -39 150 -54 113 -33 211 -73 225 -91 17 -19 29 -17 -540 -89 -649
-81 -984 -125 -1086 -141 -136 -21 -323 -15 -579 21 -110 15 -480 64 -823 109
-342 44 -624 86 -625 91 -4 18 95 63 208 95 61 18 127 41 149 52 76 39 434
177 581 224 83 26 142 50 132 52 -10 2 -24 -1 -31 -7 -9 -8 -18 -7 -32 4 -22
17 -25 17 -43 6z m-94 -37 c-3 -3 -12 -4 -19 -1 -8 3 -5 6 6 6 11 1 17 -2 13
-5z"/>
<path d="M3620 1770 c-36 -28 -104 -69 -152 -93 -91 -44 -108 -61 -84 -85 13
-13 21 -12 69 7 65 27 222 127 256 164 26 28 23 57 -6 57 -10 -1 -47 -23 -83
-50z"/>
<path d="M5500 1795 c-25 -30 93 -113 228 -161 72 -25 92 -23 92 11 0 19 -9
26 -52 41 -66 21 -152 64 -197 98 -40 30 -54 32 -71 11z"/>
<path d="M3615 1540 c-44 -34 -97 -70 -117 -82 -40 -23 -52 -61 -22 -72 17 -7
98 42 192 117 47 37 62 55 60 71 -5 36 -30 28 -113 -34z"/>
<path d="M5490 1575 c-7 -8 -10 -21 -7 -28 6 -17 160 -97 244 -127 69 -25 96
-21 91 12 -2 18 -21 29 -99 58 -52 20 -118 50 -147 68 -60 36 -65 38 -82 17z"/>
</g>
</svg>
