<?xml version="1.0" standalone="no"?>
<!DOCTYPE svg PUBLIC "-//W3C//DTD SVG 20010904//EN"
 "http://www.w3.org/TR/2001/REC-SVG-20010904/DTD/svg10.dtd">
<svg version="1.0" xmlns="http://www.w3.org/2000/svg"
 width="820.000000pt" height="860.000000pt" viewBox="0 0 820.000000 860.000000"
 preserveAspectRatio="xMidYMid meet">

<g transform="translate(0.000000,860.000000) scale(0.100000,-0.100000)"
fill="#000000" stroke="none">
<path d="M3785 8179 c-644 -52 -1302 -283 -1855 -652 -246 -165 -429 -315
-640 -527 -637 -641 -1033 -1437 -1151 -2315 -26 -194 -36 -578 -20 -775 41
-511 164 -960 391 -1425 287 -588 712 -1099 1243 -1494 582 -433 1233 -689
1967 -773 174 -19 630 -17 810 5 763 94 1444 381 2050 863 175 140 497 461
634 634 763 960 1047 2141 795 3303 -351 1615 -1728 2897 -3364 3131 -243 35
-608 45 -860 25z m745 -394 c677 -86 1311 -363 1859 -811 129 -106 387 -365
494 -495 468 -573 736 -1208 819 -1934 16 -142 16 -559 0 -700 -69 -597 -252
-1104 -577 -1600 -483 -736 -1213 -1280 -2047 -1524 -952 -278 -1977 -135
-2837 396 -405 250 -777 594 -1056 977 -364 501 -587 1059 -671 1681 -25 183
-25 656 -1 840 90 670 355 1292 777 1820 127 159 395 430 548 553 494 400
1044 657 1642 766 117 21 187 30 395 50 93 9 537 -4 655 -19z"/>
<path d="M2619 4906 c-87 -31 -165 -102 -202 -185 -33 -72 -30 -198 6 -272 31
-63 93 -126 159 -160 64 -33 185 -38 259 -10 79 30 141 88 181 169 108 220
-53 473 -300 472 -37 -1 -83 -7 -103 -14z"/>
<path d="M5421 4904 c-145 -52 -229 -181 -219 -337 8 -120 72 -217 181 -275
46 -24 63 -27 147 -27 111 0 167 21 235 90 69 68 90 124 90 235 0 81 -4 103
-24 145 -32 63 -93 124 -156 155 -64 32 -187 38 -254 14z"/>
<path d="M1675 4794 c-34 -17 -82 -61 -96 -86 -5 -10 -14 -55 -20 -100 -13
-112 -52 -191 -180 -363 -174 -234 -233 -362 -246 -524 -22 -294 181 -572 472
-646 32 -8 98 -15 145 -15 173 0 311 58 435 184 171 173 225 399 150 634 -34
105 -84 192 -204 352 -121 161 -177 266 -186 347 -3 32 -11 77 -16 100 -26 99
-165 164 -254 117z m163 -807 c114 -155 146 -221 146 -306 1 -137 -101 -241
-236 -241 -70 1 -125 27 -175 84 -77 88 -80 201 -7 322 38 63 176 253 184 253
3 0 42 -50 88 -112z"/>
<path d="M3915 3523 c-512 -46 -968 -238 -1330 -561 -147 -131 -324 -348 -390
-477 -77 -153 41 -312 209 -281 51 10 89 47 162 155 295 445 779 724 1353 781
438 43 898 -70 1252 -309 200 -135 341 -276 474 -477 61 -93 81 -115 118 -133
81 -39 167 -23 224 42 39 44 57 98 50 149 -11 83 -173 311 -338 476 -415 415
-1002 648 -1613 640 -72 -1 -149 -3 -171 -5z"/>
</g>
</svg>
